<svg aria-hidden="true" style="position: absolute; width: 0; height: 0; overflow: hidden;" version="1.1" xmlns="http://www.w3.org/2000/svg" xmlns:xlink="http://www.w3.org/1999/xlink">
<defs>
<symbol id="icon-cogs" viewBox="0 0 30 28">
    <path d="M14 14c0-2.203-1.797-4-4-4s-4 1.797-4 4 1.797 4 4 4 4-1.797 4-4zM26 22c0-1.094-0.906-2-2-2s-2 0.906-2 2c0 1.109 0.906 2 2 2 1.109 0 2-0.906 2-2zM26 6c0-1.094-0.906-2-2-2s-2 0.906-2 2c0 1.109 0.906 2 2 2 1.109 0 2-0.906 2-2zM20 12.578v2.891c0 0.203-0.156 0.438-0.359 0.469l-2.422 0.375c-0.125 0.406-0.297 0.797-0.5 1.188 0.438 0.625 0.906 1.203 1.406 1.797 0.063 0.094 0.109 0.187 0.109 0.313 0 0.109-0.031 0.219-0.109 0.297-0.313 0.422-2.063 2.328-2.516 2.328-0.125 0-0.234-0.047-0.328-0.109l-1.797-1.406c-0.391 0.203-0.781 0.359-1.203 0.484-0.078 0.797-0.156 1.656-0.359 2.422-0.063 0.219-0.25 0.375-0.469 0.375h-2.906c-0.219 0-0.438-0.172-0.469-0.391l-0.359-2.391c-0.406-0.125-0.797-0.297-1.172-0.484l-1.844 1.391c-0.078 0.078-0.203 0.109-0.313 0.109-0.125 0-0.234-0.047-0.328-0.125-0.406-0.375-2.25-2.047-2.25-2.5 0-0.109 0.047-0.203 0.109-0.297 0.453-0.594 0.922-1.172 1.375-1.781-0.219-0.422-0.406-0.844-0.547-1.281l-2.375-0.375c-0.219-0.031-0.375-0.234-0.375-0.453v-2.891c0-0.203 0.156-0.438 0.359-0.469l2.422-0.375c0.125-0.406 0.297-0.797 0.5-1.188-0.438-0.625-0.906-1.203-1.406-1.797-0.063-0.094-0.109-0.203-0.109-0.313s0.031-0.219 0.109-0.313c0.313-0.422 2.063-2.312 2.516-2.312 0.125 0 0.234 0.047 0.328 0.109l1.797 1.406c0.391-0.203 0.781-0.359 1.203-0.5 0.078-0.781 0.156-1.641 0.359-2.406 0.063-0.219 0.25-0.375 0.469-0.375h2.906c0.219 0 0.438 0.172 0.469 0.391l0.359 2.391c0.406 0.125 0.797 0.297 1.172 0.484l1.844-1.391c0.094-0.078 0.203-0.109 0.313-0.109 0.125 0 0.234 0.047 0.328 0.125 0.406 0.375 2.25 2.063 2.25 2.5 0 0.109-0.047 0.203-0.109 0.297-0.453 0.609-0.922 1.172-1.359 1.781 0.203 0.422 0.391 0.844 0.531 1.281l2.375 0.359c0.219 0.047 0.375 0.25 0.375 0.469zM30 20.906v2.188c0 0.234-2.016 0.453-2.328 0.484-0.125 0.297-0.281 0.562-0.469 0.812 0.141 0.313 0.797 1.875 0.797 2.156 0 0.047-0.016 0.078-0.063 0.109-0.187 0.109-1.859 1.109-1.937 1.109-0.203 0-1.375-1.563-1.531-1.797-0.156 0.016-0.313 0.031-0.469 0.031s-0.313-0.016-0.469-0.031c-0.156 0.234-1.328 1.797-1.531 1.797-0.078 0-1.75-1-1.937-1.109-0.047-0.031-0.063-0.078-0.063-0.109 0-0.266 0.656-1.844 0.797-2.156-0.187-0.25-0.344-0.516-0.469-0.812-0.313-0.031-2.328-0.25-2.328-0.484v-2.188c0-0.234 2.016-0.453 2.328-0.484 0.125-0.281 0.281-0.562 0.469-0.812-0.141-0.313-0.797-1.891-0.797-2.156 0-0.031 0.016-0.078 0.063-0.109 0.187-0.094 1.859-1.094 1.937-1.094 0.203 0 1.375 1.547 1.531 1.781 0.156-0.016 0.313-0.031 0.469-0.031s0.313 0.016 0.469 0.031c0.438-0.609 0.906-1.219 1.437-1.75l0.094-0.031c0.078 0 1.75 0.984 1.937 1.094 0.047 0.031 0.063 0.078 0.063 0.109 0 0.281-0.656 1.844-0.797 2.156 0.187 0.25 0.344 0.531 0.469 0.812 0.313 0.031 2.328 0.25 2.328 0.484zM30 4.906v2.187c0 0.234-2.016 0.453-2.328 0.484-0.125 0.297-0.281 0.562-0.469 0.812 0.141 0.313 0.797 1.875 0.797 2.156 0 0.047-0.016 0.078-0.063 0.109-0.187 0.109-1.859 1.109-1.937 1.109-0.203 0-1.375-1.563-1.531-1.797-0.156 0.016-0.313 0.031-0.469 0.031s-0.313-0.016-0.469-0.031c-0.156 0.234-1.328 1.797-1.531 1.797-0.078 0-1.75-1-1.937-1.109-0.047-0.031-0.063-0.078-0.063-0.109 0-0.266 0.656-1.844 0.797-2.156-0.187-0.25-0.344-0.516-0.469-0.812-0.313-0.031-2.328-0.25-2.328-0.484v-2.188c0-0.234 2.016-0.453 2.328-0.484 0.125-0.281 0.281-0.562 0.469-0.812-0.141-0.313-0.797-1.891-0.797-2.156 0-0.031 0.016-0.078 0.063-0.109 0.187-0.094 1.859-1.094 1.937-1.094 0.203 0 1.375 1.547 1.531 1.781 0.156-0.016 0.313-0.031 0.469-0.031s0.313 0.016 0.469 0.031c0.438-0.609 0.906-1.219 1.437-1.75l0.094-0.031c0.078 0 1.75 0.984 1.937 1.094 0.047 0.031 0.063 0.078 0.063 0.109 0 0.281-0.656 1.844-0.797 2.156 0.187 0.25 0.344 0.531 0.469 0.812 0.313 0.031 2.328 0.25 2.328 0.484z"></path>
</symbol>

<symbol id="icon-floppy-save" viewBox="0 0 24 28">
    <path d="M6 24h12v-6h-12v6zM20 24h2v-14c0-0.297-0.266-0.938-0.469-1.141l-4.391-4.391c-0.219-0.219-0.828-0.469-1.141-0.469v6.5c0 0.828-0.672 1.5-1.5 1.5h-9c-0.828 0-1.5-0.672-1.5-1.5v-6.5h-2v20h2v-6.5c0-0.828 0.672-1.5 1.5-1.5h13c0.828 0 1.5 0.672 1.5 1.5v6.5zM14 9.5v-5c0-0.266-0.234-0.5-0.5-0.5h-3c-0.266 0-0.5 0.234-0.5 0.5v5c0 0.266 0.234 0.5 0.5 0.5h3c0.266 0 0.5-0.234 0.5-0.5zM24 10v14.5c0 0.828-0.672 1.5-1.5 1.5h-21c-0.828 0-1.5-0.672-1.5-1.5v-21c0-0.828 0.672-1.5 1.5-1.5h14.5c0.828 0 1.969 0.469 2.562 1.062l4.375 4.375c0.594 0.594 1.062 1.734 1.062 2.562z"></path>
</symbol>

<symbol id="icon-trash-bin" viewBox="0 0 22 28">
    <path d="M8 11.5v9c0 0.281-0.219 0.5-0.5 0.5h-1c-0.281 0-0.5-0.219-0.5-0.5v-9c0-0.281 0.219-0.5 0.5-0.5h1c0.281 0 0.5 0.219 0.5 0.5zM12 11.5v9c0 0.281-0.219 0.5-0.5 0.5h-1c-0.281 0-0.5-0.219-0.5-0.5v-9c0-0.281 0.219-0.5 0.5-0.5h1c0.281 0 0.5 0.219 0.5 0.5zM16 11.5v9c0 0.281-0.219 0.5-0.5 0.5h-1c-0.281 0-0.5-0.219-0.5-0.5v-9c0-0.281 0.219-0.5 0.5-0.5h1c0.281 0 0.5 0.219 0.5 0.5zM18 22.813v-14.812h-14v14.812c0 0.75 0.422 1.188 0.5 1.188h13c0.078 0 0.5-0.438 0.5-1.188zM7.5 6h7l-0.75-1.828c-0.047-0.063-0.187-0.156-0.266-0.172h-4.953c-0.094 0.016-0.219 0.109-0.266 0.172zM22 6.5v1c0 0.281-0.219 0.5-0.5 0.5h-1.5v14.812c0 1.719-1.125 3.187-2.5 3.187h-13c-1.375 0-2.5-1.406-2.5-3.125v-14.875h-1.5c-0.281 0-0.5-0.219-0.5-0.5v-1c0-0.281 0.219-0.5 0.5-0.5h4.828l1.094-2.609c0.313-0.766 1.25-1.391 2.078-1.391h5c0.828 0 1.766 0.625 2.078 1.391l1.094 2.609h4.828c0.281 0 0.5 0.219 0.5 0.5z"></path>
</symbol>

<symbol id="icon-mars" viewBox="0 0 24 28">
    <path d="M23 2c0.547 0 1 0.453 1 1v6.5c0 0.281-0.219 0.5-0.5 0.5h-1c-0.281 0-0.5-0.219-0.5-0.5v-4.094l-5.969 5.984c1.234 1.531 1.969 3.484 1.969 5.609 0 4.969-4.031 9-9 9s-9-4.031-9-9 4.031-9 9-9c2.125 0 4.078 0.734 5.609 1.969l5.969-5.969h-4.078c-0.281 0-0.5-0.219-0.5-0.5v-1c0-0.281 0.219-0.5 0.5-0.5h6.5zM9 24c3.859 0 7-3.141 7-7s-3.141-7-7-7-7 3.141-7 7 3.141 7 7 7z"></path>
</symbol>

<symbol id="icon-venus" viewBox="0 0 18 28">
    <path d="M18 9c0 4.625-3.5 8.437-8 8.937v4.062h3.5c0.281 0 0.5 0.219 0.5 0.5v1c0 0.281-0.219 0.5-0.5 0.5h-3.5v3.5c0 0.281-0.219 0.5-0.5 0.5h-1c-0.281 0-0.5-0.219-0.5-0.5v-3.5h-3.5c-0.281 0-0.5-0.219-0.5-0.5v-1c0-0.281 0.219-0.5 0.5-0.5h3.5v-4.062c-4.734-0.516-8.359-4.719-7.969-9.672 0.344-4.25 3.719-7.734 7.938-8.203 5.437-0.609 10.031 3.625 10.031 8.937zM2 9c0 3.859 3.141 7 7 7s7-3.141 7-7-3.141-7-7-7-7 3.141-7 7z"></path>
</symbol>

<symbol id="icon-check" viewBox="0 0 28 28">
    <path  d="M26.109 8.844c0 0.391-0.156 0.781-0.438 1.062l-13.438 13.438c-0.281 0.281-0.672 0.438-1.062 0.438s-0.781-0.156-1.062-0.438l-7.781-7.781c-0.281-0.281-0.438-0.672-0.438-1.062s0.156-0.781 0.438-1.062l2.125-2.125c0.281-0.281 0.672-0.438 1.062-0.438s0.781 0.156 1.062 0.438l4.594 4.609 10.25-10.266c0.281-0.281 0.672-0.438 1.062-0.438s0.781 0.156 1.062 0.438l2.125 2.125c0.281 0.281 0.438 0.672 0.438 1.062z">
    </path>
</symbol>

<symbol id="icon-calories-day" viewBox="0 0 32 32">
	<path d="M30.807 17.349c-0.287-1.051-0.413-1.918-0.395-2.726 0.011-0.451 0.067-0.886 0.17-1.293 0.054-0.213 0.15-0.428 0.251-0.656 0.104-0.234 0.212-0.477 0.285-0.743 0.041-0.145 0.016-0.301-0.067-0.428s-0.216-0.211-0.366-0.233c-1.187-0.164-2.375 0.515-3.089 1.214-0.559 0.548-0.847 1.23-1.125 1.889-0.051 0.122-0.103 0.244-0.155 0.363-0.018 0.042-0.057 0.12-0.105 0.213-0.004-0.004-0.007-0.008-0.011-0.012-0-0.001-0.001-0.001-0.002-0.002 0.071-0.56 0.115-1.125 0.115-1.684 0-1.694-0.321-3.337-0.95-4.891 0.053-0.133 0.097-0.263 0.157-0.398 0.051-0.118 0.104-0.234 0.159-0.352 0.090-0.193 0.184-0.384 0.282-0.574 0.023-0.044 0.075-0.157 0.143-0.308 0.121-0.266 0.475-1.042 0.621-1.266 0.124-0.097 0.204-0.247 0.204-0.416 0-0.291-0.236-0.526-0.526-0.526-0.203 0-0.605 0.004-2.37 1.343-0.186-0.274-0.383-0.55-0.608-0.834-2.513-3.136-6.256-4.934-10.268-4.934-7.255 0-13.157 5.902-13.157 13.157 0 0.185 0.005 0.363 0.011 0.549 0.033 0.751 0.127 1.489 0.279 2.191 1.278 6.036 6.69 10.417 12.867 10.417 0.285 0 0.548-0.012 0.796-0.028 0.314 0.723 0.72 1.412 1.237 2.060 1.768 2.216 4.375 3.434 7.149 3.434 0.793 0 1.6-0.099 2.405-0.304 3.75-0.952 6.491-3.851 7.152-7.567 0.338-1.898-0.207-3.7-0.735-5.444-0.122-0.405-0.244-0.808-0.354-1.21zM25.262 13.251c0 0.146-0.011 0.292-0.016 0.438-0.545-1.019-0.679-2.223-0.406-3.598 0.278 1.023 0.422 2.080 0.422 3.16zM22.692 6.936h-3.219c-0.176 0-0.34 0.088-0.438 0.234l-0.877 1.316-6.86-0.685c-0.971-0.096-1.949-0.396-2.825-0.87-0.536-0.292-1.028-0.643-1.472-1.048h15.751c0.163 0.213 0.313 0.423 0.451 0.631-0.17 0.137-0.34 0.278-0.511 0.422zM1.248 15.356c-0.016-0.089-0.032-0.179-0.046-0.27-0.029-0.184-0.054-0.37-0.074-0.558-0.008-0.075-0.013-0.15-0.020-0.225h1.523c0.14 0 0.274-0.055 0.372-0.154l1.951-1.951h0.835v5.263h-0.835l-1.951-1.951c-0.098-0.099-0.233-0.154-0.372-0.154zM13.157 25.356c-5.462 0-10.262-3.727-11.673-8.947h0.929l1.951 1.951c0.098 0.099 0.233 0.154 0.372 0.154h7.894v-1.053h-5.789v-1.053h5.789v-1.053h-5.789v-1.053h5.789v-1.053h-5.789v-1.053h5.789v-1.053h-7.894c-0.14 0-0.274 0.055-0.372 0.154l-1.951 1.951h-1.361c0-6.675 5.43-12.105 12.105-12.105 3.309 0 6.415 1.332 8.688 3.684h-16.056c-0.202 0-0.387 0.116-0.474 0.298-0.088 0.183-0.063 0.399 0.064 0.557 0.713 0.891 1.585 1.622 2.592 2.171 1 0.54 2.116 0.883 3.224 0.992l7.173 0.716c0.017 0.002 0.034 0.003 0.052 0.003 0.175 0 0.34-0.087 0.438-0.234l0.896-1.345h1.747c-3.953 3.669-7.681 8.873-8.217 13.596-0.152 1.333-0.051 2.59 0.289 3.762-0.136 0.005-0.273 0.009-0.416 0.009zM24.353 29.731c-0.563 0.595-1.376 0.934-2.204 0.932-0.763-0.011-1.466-0.334-1.978-0.908-2.071-2.322-1.699-5.833-0.477-8.113 0.396-0.738 0.925-1.469 1.437-2.177 0.133-0.183 0.268-0.37 0.402-0.558 0.459 0.892 0.93 1.712 1.624 2.555l0.208 0.253c0.738 0.892 1.502 1.816 1.883 2.887 0.597 1.676 0.195 3.977-0.895 5.129zM30.86 23.819c-0.543 3.051-2.672 5.482-5.63 6.504 1.269-1.464 1.716-4.088 1.009-6.073-0.444-1.246-1.267-2.242-2.063-3.205l-0.207-0.25c-0.82-0.997-1.318-1.996-1.896-3.152-0.084-0.168-0.252-0.279-0.44-0.291-0.186-0.011-0.368 0.079-0.471 0.237-0.273 0.416-0.569 0.826-0.883 1.26-0.533 0.735-1.083 1.496-1.512 2.296-1.349 2.516-1.757 6.372 0.42 9.065-1.211-0.51-2.297-1.326-3.174-2.426-1.379-1.728-1.945-3.774-1.683-6.081 0.585-5.16 5.284-10.996 9.704-14.509 0.427-0.34 0.782-0.608 1.076-0.822-0.040 0.089-0.070 0.155-0.085 0.184-0.103 0.201-0.203 0.404-0.298 0.609-0.058 0.125-0.116 0.251-0.17 0.377-1.236 2.827-1.229 5.216 0.018 7.099 0.068 0.102 0.267 0.336 0.832 0.986 0.214 0.247 0.406 0.467 0.47 0.545 0.046 0.069 0.109 0.129 0.187 0.172 0.255 0.141 0.574 0.046 0.714-0.208 0.002-0.004 0.004-0.008 0.006-0.011 0.086-0.159 0.407-0.76 0.497-0.963 0.055-0.124 0.108-0.252 0.162-0.379 0.249-0.589 0.484-1.147 0.892-1.546 0.361-0.353 0.909-0.728 1.487-0.874-0.098 0.223-0.194 0.455-0.259 0.712-0.122 0.483-0.189 0.996-0.201 1.526-0.021 0.913 0.117 1.875 0.431 3.027 0.112 0.41 0.237 0.823 0.362 1.238 0.491 1.624 0.998 3.304 0.705 4.954z"></path>
	<path d="M29.777 21.58c-0.139-0.784-0.378-1.574-0.631-2.412-0.128-0.423-0.255-0.845-0.37-1.265-0.118-0.43-0.21-0.826-0.282-1.21l-1.035 0.193c0.078 0.413 0.176 0.836 0.301 1.294 0.117 0.428 0.247 0.86 0.378 1.293 0.244 0.806 0.474 1.568 0.602 2.29z"></path>
	<path d="M3 10.481l1.016 0.276c0.349-1.282 0.953-2.456 1.797-3.49l-0.816-0.665c-0.938 1.149-1.609 2.454-1.997 3.879z"></path>
	<path d="M5.678 19.066l-0.831 0.647c1.753 2.25 4.378 3.712 7.203 4.006l0.109-1.046c-2.542-0.266-4.904-1.581-6.482-3.607z"></path>
	<path d="M17.145 4.656l0.444-0.955c-1.393-0.648-2.885-0.976-4.432-0.976s-3.039 0.328-4.432 0.976l0.444 0.955c2.506-1.165 5.471-1.165 7.977 0z"></path>
	<path d="M13.683 11.146h1.053v1.053h-1.053z"></path>
	<path d="M15.789 11.146h1.053v1.053h-1.053z"></path>
	<path d="M13.683 13.251h1.053v1.053h-1.053z"></path>
	<path d="M28.682 24.398l0.179-1.309 1.043 0.143-0.179 1.309z"></path>
</symbol>

<symbol id="icon-calories" viewBox="0 0 32 32">
	<path d="M22.845 17.015c-0.216 0.018-0.392 0.183-0.424 0.397-0.238 1.577-1.043 2.81-1.758 3.629 0.383-1.571 0.469-3.136 0.255-4.672-0.259-1.858-0.974-3.669-2.068-5.238-2.273-3.258-3.051-5.955-3.303-7.644-0.272-1.823-0.007-2.894-0.005-2.903 0.115-0.438-0.426-0.771-0.765-0.47-3.22 2.864-4.643 5.889-5.27 7.922-0.196 0.634-0.328 1.213-0.418 1.717-1.494-2.389-4.531-3.372-4.689-3.422-0.4-0.126-0.758 0.323-0.545 0.685 1.431 2.428 0.814 4.286-0.071 6.292-0.244 0.553 0.614 0.932 0.858 0.379 0.821-1.859 1.468-3.726 0.586-5.994 1.308 0.647 3.347 1.994 3.689 4.209 0.088 0.572 0.967 0.477 0.931-0.1-0.003-0.054-0.256-5.173 4.636-10.117-0.044 1.829 0.402 5.405 3.597 9.984 1.271 1.822 3.114 5.641 1.174 10.746-0.159 0.418 0.333 0.806 0.702 0.554 0.095-0.065 1.939-1.346 2.901-3.662 0.057 0.329 0.097 0.664 0.097 0.96 0 5.953-4.84 10.797-10.789 10.797-2.94 0-5.686-1.186-7.534-3.253-1.78-1.991-2.591-4.602-2.282-7.352 0.195-1.738 0.721-3.169 1.099-4.094 0.229-0.56-0.639-0.915-0.868-0.355-0.4 0.977-0.955 2.49-1.163 4.344-0.339 3.019 0.554 5.889 2.515 8.081 2.026 2.266 5.027 3.566 8.233 3.566 6.466 0 11.726-5.264 11.726-11.734 0-1.21-0.539-2.86-0.562-2.93-0.068-0.206-0.268-0.338-0.485-0.321z"></path>
	<path d="M19.757 2.808h1.405v1.405c0 0.605 0.938 0.605 0.938 0v-1.405h1.405c0.605 0 0.605-0.938 0-0.938h-1.405v-1.405c0-0.605-0.938-0.605-0.938 0v1.405h-1.405c-0.605-0-0.605 0.938 0 0.938z"></path>
	<path d="M30.2 5.035h-1.405v-1.405c0-0.605-0.938-0.605-0.938 0v1.405h-1.405c-0.605 0-0.605 0.938 0 0.938h1.405v1.405c0 0.605 0.938 0.605 0.938 0v-1.405h1.405c0.605 0 0.605-0.938 0-0.938z"></path>
	<path d="M25.5 9.461h-1.405v-1.405c0-0.259-0.21-0.469-0.469-0.469s-0.469 0.21-0.469 0.469v1.405h-1.405c-0.605 0-0.605 0.938 0 0.938h1.405v1.405c0 0.605 0.938 0.605 0.938 0v-1.405h1.405c0.605 0 0.605-0.938 0-0.938z"></path>
	<path d="M13.501 22.3c0.308 0.52 1.115 0.043 0.807-0.478-0.809-1.367-1.574-2.467-1.606-2.513-0.183-0.262-0.586-0.262-0.769 0-0.354 0.509-3.463 5.025-3.463 6.982 0 2.122 1.726 3.848 3.848 3.848s3.848-1.726 3.848-3.848c0-0.584-0.257-1.401-0.786-2.496-0.263-0.544-1.107-0.137-0.844 0.408 0.572 1.186 0.693 1.791 0.693 2.089 0 1.605-1.305 2.91-2.91 2.91s-2.91-1.305-2.91-2.91c0-1.24 1.843-4.272 2.909-5.878 0.3 0.452 0.739 1.133 1.185 1.886z"></path>
</symbol>

<symbol id="icon-met-rate" viewBox="0 0 32 32">
	<path d="M16 0c-0.295 0-0.533 0.239-0.533 0.533v2.133c0 0.295 0.239 0.533 0.533 0.533s0.533-0.239 0.533-0.533v-1.587c8.105 0.287 14.499 6.991 14.403 15.101s-6.646 14.66-14.756 14.756-14.813-6.298-15.101-14.403h1.587c0.295 0 0.533-0.239 0.533-0.533s-0.239-0.533-0.533-0.533h-2.133c-0.295 0-0.533 0.239-0.533 0.533 0 8.836 7.164 16 16 16s16-7.164 16-16-7.164-16-16-16z"></path>
	<path d="M23.155 8.009c-1.468-0.123-2.757 0.968-2.879 2.436s0.968 2.757 2.436 2.879c0.075 0.007 0.149 0.009 0.223 0.009 1.385-0.003 2.539-1.064 2.655-2.444 0.121-1.467-0.968-2.755-2.435-2.88zM22.8 12.261c-0.856-0.070-1.504-0.803-1.468-1.661s0.743-1.535 1.602-1.533c0.044 0 0.089 0 0.134 0.005 0.881 0.074 1.535 0.847 1.461 1.728s-0.847 1.535-1.728 1.461z"></path>
	<path d="M17.234 9.982c-0.633-0.604-1.629-0.604-2.262 0l-3.582 3.583c-0.517 0.521-0.515 1.363 0.004 1.882s1.36 0.521 1.881 0.004l2.827-2.827 2.107 2.106c0.512 0.513 1.343 0.517 1.861 0.009 0.259-0.245 0.408-0.585 0.412-0.942s-0.135-0.7-0.387-0.953zM19.319 13.982c-0.101 0.095-0.258 0.091-0.355-0.007l-2.483-2.485c-0.208-0.208-0.546-0.208-0.754 0l-3.205 3.206c-0.104 0.104-0.273 0.104-0.377 0s-0.104-0.273-0-0.377l3.582-3.583c0.208-0.208 0.546-0.208 0.754 0l2.861 2.861c0.049 0.049 0.076 0.116 0.074 0.185-0.003 0.077-0.039 0.149-0.097 0.198z"></path>
	<path d="M16.64 26.32h0.007c0.354 0.001 0.693-0.14 0.942-0.39l2.822-2.822c0.625-0.625 0.625-1.638 0-2.263l-3.582-3.582c-0.528-0.504-1.358-0.504-1.885 0-0.521 0.521-0.521 1.365 0 1.885l2.827 2.827-2.068 2.068c-0.514 0.517-0.518 1.352-0.010 1.874 0.249 0.257 0.59 0.402 0.948 0.403zM16.458 24.8l2.445-2.445c0.208-0.208 0.208-0.546 0-0.754l-3.205-3.206c-0.069-0.067-0.097-0.166-0.073-0.259s0.097-0.166 0.19-0.191c0.093-0.024 0.192 0.003 0.259 0.073l3.582 3.582c0.208 0.208 0.208 0.546 0 0.754l-2.822 2.819c-0.049 0.050-0.117 0.078-0.187 0.078-0.073 0.004-0.144-0.026-0.191-0.081-0.099-0.104-0.098-0.268 0.002-0.371z"></path>
	<path d="M25.333 19.733c0.736 0 1.333-0.597 1.333-1.333s-0.597-1.333-1.333-1.333h-2.933v-1.6c0-0.197-0.108-0.378-0.282-0.47s-0.384-0.083-0.548 0.027l-1.6 1.067c-0.148 0.099-0.237 0.265-0.237 0.444v1.6c0 0.884 0.716 1.6 1.6 1.6zM20.8 18.133v-1.315l0.533-0.355v1.136c0 0.295 0.239 0.533 0.533 0.533h3.467c0.147 0 0.267 0.119 0.267 0.267s-0.119 0.267-0.267 0.267h-4c-0.295 0-0.533-0.239-0.533-0.533z"></path>
	<path d="M15.577 20.496c-0.414-0.415-0.902-0.914-1.024-1.056-0.023-0.038-0.050-0.072-0.081-0.104-0.208-0.208-0.545-0.208-0.753 0l-5.821 5.822c-0.521 0.521-0.521 1.365 0 1.886s1.365 0.521 1.886 0l5.793-5.794c0.208-0.208 0.208-0.546 0-0.754zM9.029 26.289c-0.104 0.104-0.273 0.104-0.377 0s-0.104-0.273-0-0.377l5.422-5.421c0.107 0.112 0.23 0.239 0.373 0.381z"></path>
	<path d="M13.684 3.403c0.031 0 0.063-0.003 0.093-0.008 0.29-0.051 0.484-0.328 0.433-0.618l-0.373-2.101c-0.057-0.284-0.33-0.47-0.615-0.419s-0.478 0.318-0.435 0.604l0.373 2.102c0.045 0.254 0.266 0.44 0.524 0.44z"></path>
	<path d="M10.939 3.653c0.077 0.21 0.277 0.351 0.501 0.351 0.062 0 0.124-0.011 0.182-0.033 0.277-0.1 0.42-0.406 0.32-0.683l-0.731-2.005c-0.105-0.271-0.407-0.409-0.68-0.309s-0.416 0.399-0.322 0.674z"></path>
	<path d="M8.871 4.72c0.095 0.166 0.271 0.269 0.463 0.27s0.368-0.102 0.464-0.268c0.095-0.166 0.094-0.37-0.002-0.535l-1.067-1.848c-0.148-0.253-0.473-0.339-0.727-0.192s-0.342 0.471-0.197 0.725z"></path>
	<path d="M7.021 6.129c0.189 0.226 0.526 0.256 0.752 0.067s0.256-0.526 0.067-0.752l-1.373-1.635c-0.192-0.214-0.519-0.236-0.739-0.052s-0.254 0.511-0.077 0.737z"></path>
	<path d="M5.443 7.84c0.226 0.182 0.556 0.149 0.743-0.073s0.161-0.553-0.057-0.744l-1.634-1.371c-0.226-0.182-0.556-0.149-0.743 0.073s-0.161 0.553 0.058 0.744z"></path>
	<path d="M2.339 8.729l1.847 1.067c0.165 0.097 0.369 0.098 0.535 0.002s0.268-0.272 0.268-0.464c-0.001-0.191-0.103-0.368-0.27-0.463l-1.847-1.067c-0.255-0.145-0.579-0.057-0.726 0.197s-0.061 0.578 0.192 0.727z"></path>
	<path d="M1.284 11.211l2.005 0.73c0.058 0.022 0.12 0.033 0.182 0.033 0.259 0 0.481-0.186 0.526-0.441s-0.1-0.505-0.343-0.594l-2.005-0.729c-0.275-0.094-0.574 0.049-0.674 0.322s0.038 0.575 0.309 0.68z"></path>
	<path d="M0.676 13.84l2.101 0.371c0.031 0.005 0.062 0.008 0.093 0.008 0.277 0 0.508-0.211 0.531-0.487s-0.167-0.524-0.439-0.572l-2.102-0.373c-0.29-0.051-0.567 0.143-0.618 0.433s0.143 0.567 0.433 0.618z"></path>
</symbol>

<symbol id="icon-distance" viewBox="0 0 32 32">
	<path d="M26.667 0c-2.941 0-5.333 2.393-5.333 5.333 0 2.551 3.779 7.714 4.665 8.889-0 0.38 0 0.752-0.009 1.094-0.010 0.368 0.281 0.675 0.649 0.684 0.006 0 0.012 0 0.018 0 0.359 0 0.656-0.287 0.666-0.649 0.009-0.351 0.009-0.734 0.009-1.124 0.88-1.167 4.668-6.34 4.668-8.894 0-2.941-2.393-5.333-5.333-5.333zM26.667 12.884c-1.465-2.016-4-5.854-4-7.551 0-2.206 1.794-4 4-4s4 1.794 4 4c0 1.697-2.535 5.535-4 7.551z"></path>
	<path d="M26.667 4c-0.735 0-1.333 0.598-1.333 1.333s0.598 1.333 1.333 1.333 1.333-0.598 1.333-1.333c0-0.735-0.598-1.333-1.333-1.333z"></path>
	<path d="M8 14.667c-2.206 0-4 1.794-4 4s1.794 4 4 4 4-1.794 4-4c0-2.206-1.794-4-4-4zM8 21.333c-1.471 0-2.667-1.196-2.667-2.667s1.196-2.667 2.667-2.667 2.667 1.196 2.667 2.667-1.196 2.667-2.667 2.667z"></path>
	<path d="M18.098 24.027c-0.345-0.134-0.729 0.037-0.863 0.381-0.299 0.772-0.672 1.672-1.176 2.497-0.192 0.314-0.092 0.725 0.221 0.917 0.109 0.066 0.229 0.098 0.347 0.098 0.225 0 0.444-0.113 0.57-0.319 0.559-0.915 0.962-1.884 1.282-2.711 0.133-0.343-0.038-0.729-0.381-0.863z"></path>
	<path d="M14.339 28.893c-0.668 0.529-1.427 0.928-2.322 1.219-0.35 0.114-0.542 0.49-0.428 0.84 0.092 0.281 0.353 0.46 0.634 0.46 0.068 0 0.138-0.010 0.206-0.033 1.033-0.336 1.954-0.821 2.737-1.441 0.288-0.229 0.337-0.648 0.109-0.937-0.23-0.288-0.649-0.339-0.937-0.109z"></path>
	<path d="M20.406 19.214c-1.1 0.624-1.712 1.708-2.076 2.469-0.16 0.332-0.020 0.73 0.313 0.889 0.093 0.045 0.191 0.066 0.288 0.066 0.249 0 0.487-0.139 0.602-0.378 0.463-0.965 0.936-1.547 1.533-1.887 0.32-0.182 0.432-0.589 0.25-0.909-0.181-0.32-0.587-0.433-0.909-0.25z"></path>
	<path d="M26.419 17.564c-0.303-0.205-0.719-0.126-0.926 0.178-0.219 0.324-0.669 0.77-2.027 0.892-0.367 0.033-0.637 0.357-0.604 0.724 0.031 0.346 0.322 0.607 0.663 0.607 0.020 0 0.040-0.001 0.061-0.003 1.443-0.13 2.428-0.611 3.012-1.473 0.206-0.305 0.126-0.719-0.178-0.926z"></path>
	<path d="M9.58 30.675c2.104-2.243 6.42-7.404 6.42-12.009 0-4.486-3.514-8-8-8s-8 3.514-8 8c0 5.954 7.234 12.86 7.542 13.151 0.128 0.122 0.293 0.182 0.458 0.182 0.486 0 0.947-0.017 1.385-0.050 0.367-0.028 0.643-0.348 0.615-0.715-0.020-0.263-0.19-0.468-0.42-0.56zM8 30.393c-1.575-1.607-6.667-7.156-6.667-11.727 0-3.738 2.928-6.667 6.667-6.667s6.667 2.928 6.667 6.667c0 4.57-5.092 10.12-6.667 11.727z"></path>
</symbol>

<symbol id="icon-stopwatch" viewBox="0 0 32 32">
	<path d="M16.871 20.261c0.555-0.043 1.061-0.326 1.39-0.778l4.994-6.903c0.153-0.212 0.13-0.504-0.055-0.69s-0.478-0.208-0.69-0.055l-6.905 4.995c-0.45 0.327-0.733 0.834-0.777 1.389s0.158 1.099 0.551 1.492c0.358 0.358 0.841 0.557 1.342 0.557 0.050 0 0.099-0.002 0.149-0.006zM15.892 18.301c0.019-0.244 0.143-0.466 0.34-0.609l4.212-3.047-3.046 4.211c-0.144 0.198-0.366 0.322-0.61 0.341-0.243 0.016-0.481-0.068-0.654-0.242-0.172-0.172-0.26-0.411-0.241-0.654z"></path>
	<path d="M28.818 10.434c-0.005-0.011-0.005-0.023-0.011-0.034s-0.017-0.017-0.023-0.027c-0.539-0.925-1.177-1.785-1.901-2.565l1.146-1.145 0.754 0.754 2.262-2.263-2.262-2.262-2.263 2.262 0.755 0.755-1.146 1.145c-0.78-0.724-1.639-1.363-2.565-1.902-0.010-0.007-0.016-0.017-0.027-0.023s-0.023-0.006-0.034-0.012c-1.65-0.95-3.503-1.583-5.479-1.815v-0.635h0.8c0.735 0 1.333-0.598 1.333-1.333s-0.598-1.333-1.334-1.333h-4.8c-0.735 0-1.333 0.598-1.333 1.333s0.598 1.333 1.333 1.333h0.8v0.617c-0.576 0.061-1.151 0.155-1.719 0.285-0.287 0.066-0.467 0.352-0.401 0.639s0.352 0.467 0.639 0.401c0.491-0.113 0.986-0.197 1.483-0.254l0.572-0.044c0.175-0.013 0.336-0.023 0.493-0.030v1.054c0 0.295 0.238 0.533 0.533 0.533s0.533-0.238 0.533-0.533v-1.051c2.006 0.092 3.896 0.631 5.577 1.517l-0.526 0.91c-0.147 0.255-0.060 0.581 0.195 0.729 0.084 0.049 0.175 0.071 0.266 0.071 0.185 0 0.364-0.095 0.462-0.267l0.524-0.908c1.669 1.059 3.086 2.476 4.145 4.145l-0.908 0.524c-0.254 0.147-0.342 0.473-0.194 0.729 0.099 0.171 0.278 0.267 0.462 0.267 0.091 0 0.182-0.023 0.266-0.071l0.91-0.526c0.899 1.705 1.439 3.626 1.519 5.663h-1.053c-0.295 0-0.533 0.238-0.533 0.533s0.238 0.533 0.533 0.533h1.053c-0.081 2.038-0.621 3.959-1.519 5.663l-0.91-0.526c-0.255-0.147-0.581-0.061-0.729 0.195s-0.060 0.581 0.195 0.729l0.908 0.524c-1.059 1.669-2.476 3.086-4.145 4.145l-0.524-0.908c-0.148-0.256-0.475-0.343-0.729-0.195-0.255 0.147-0.343 0.474-0.195 0.729l0.526 0.91c-1.681 0.886-3.571 1.425-5.577 1.517v-1.050c0-0.295-0.238-0.533-0.533-0.533s-0.533 0.238-0.533 0.533v1.054c-0.852-0.029-1.706-0.136-2.547-0.329-0.287-0.069-0.573 0.114-0.639 0.401s0.114 0.573 0.401 0.639c1.065 0.245 2.152 0.369 3.231 0.369 0.026 0 0.051-0.002 0.077-0.002 0.004 0 0.006 0.002 0.010 0.002 0.004 0 0.008-0.003 0.012-0.003 2.564-0.018 4.969-0.71 7.050-1.906 0.017-0.007 0.034-0.011 0.050-0.021 0.011-0.006 0.017-0.017 0.027-0.023 2.154-1.255 3.954-3.053 5.212-5.206 0.010-0.014 0.023-0.026 0.032-0.042 0.006-0.011 0.006-0.023 0.011-0.034 1.218-2.112 1.918-4.558 1.918-7.166s-0.7-5.054-1.918-7.166zM28.781 4.401l0.754 0.754-0.754 0.755-0.755-0.755 0.755-0.754zM15.89 3.211v-1.611h-1.867c-0.147 0-0.267-0.12-0.267-0.267s0.12-0.267 0.267-0.267h4.8c0.147 0 0.267 0.12 0.267 0.267s-0.12 0.267-0.267 0.267h-1.867v1.611c-0.186-0.007-0.363-0.011-0.533-0.011-0.015 0-0.032 0.001-0.047 0.001-0.013 0-0.027-0.001-0.040-0.001-0.087 0-0.175 0.006-0.262 0.007-0.062 0.002-0.12 0.001-0.184 0.004z"></path>
	<path d="M11.623 7.467h-2.667c-0.295 0-0.533 0.238-0.533 0.533s0.238 0.533 0.533 0.533h2.667c0.295 0 0.533-0.238 0.533-0.533s-0.238-0.533-0.533-0.533z"></path>
	<path d="M11.623 11.2h-5.333c-0.295 0-0.533 0.238-0.533 0.533s0.238 0.533 0.533 0.533h5.333c0.295 0 0.533-0.238 0.533-0.533s-0.238-0.533-0.533-0.533z"></path>
	<path d="M11.623 14.933h-8c-0.295 0-0.533 0.238-0.533 0.533s0.238 0.533 0.533 0.533h8c0.295 0 0.533-0.238 0.533-0.533s-0.238-0.533-0.533-0.533z"></path>
	<path d="M11.623 18.667h-10.133c-0.295 0-0.533 0.238-0.533 0.533s0.238 0.533 0.533 0.533h10.133c0.295 0 0.533-0.238 0.533-0.533s-0.238-0.533-0.533-0.533z"></path>
	<path d="M11.623 22.4h-6.933c-0.295 0-0.533 0.238-0.533 0.533s0.238 0.533 0.533 0.533h6.933c0.295 0 0.533-0.238 0.533-0.533s-0.238-0.533-0.533-0.533z"></path>
	<path d="M11.623 26.133h-3.733c-0.295 0-0.533 0.238-0.533 0.533s0.238 0.533 0.533 0.533h3.733c0.295 0 0.533-0.238 0.533-0.533s-0.238-0.533-0.533-0.533z"></path>
</symbol>


</defs>
</svg>
